<svg xmlns="http://www.w3.org/2000/svg" version="1.1" xmlns:xlink="http://www.w3.org/1999/xlink" xmlns:svgjs="http://svgjs.dev/svgjs" width="1500" height="333" viewBox="0 0 1500 333"><g transform="matrix(1,0,0,1,2.324750631868369,-1.5559192920256066)"><svg viewBox="0 0 396 88" data-background-color="#122023" preserveAspectRatio="xMidYMid meet" height="333" width="1500" xmlns="http://www.w3.org/2000/svg" xmlns:xlink="http://www.w3.org/1999/xlink"><g id="tight-bounds" transform="matrix(1,0,0,1,0.2400000000000091,0.47799099370215004)"><svg viewBox="0 0 395.52 87.04401801259569" height="87.04401801259569" width="395.52"><g><svg viewBox="0 0 527.3057974841726 116.04676207109236" height="87.04401801259569" width="395.52"><g transform="matrix(1,0,0,1,131.78579748417255,16.038300691446196)"><svg viewBox="0 0 395.52 83.97016068819997" height="83.97016068819997" width="395.52"><g id="textblocktransform"><svg viewBox="0 0 395.52 83.97016068819997" height="83.97016068819997" width="395.52" id="textblock"><g><svg viewBox="0 0 395.52 83.97016068819997" height="83.97016068819997" width="395.52"><g transform="matrix(1,0,0,1,0,0)"><svg width="395.52" viewBox="2.08 -31.1 154.01 32.7" height="83.97016068819997" data-palette-color="#efefef"><path d="M7.7 0.83L7.7 0.83Q4.45 0.13 3.26-2.45 2.08-5.03 2.08-9.3L2.08-9.3Q2.08-10.53 2.14-12.11 2.2-13.7 2.33-15.43 2.45-17.15 2.6-18.8 2.75-20.45 2.9-21.83 3.05-23.2 3.18-24.05L3.18-24.05Q3.68-27.38 4.65-28.88 5.63-30.38 7.3-30.38L7.3-30.38Q8.38-30.38 8.9-29.91 9.43-29.45 9.6-28.6 9.78-27.75 9.78-26.58L9.78-26.58Q9.78-25.8 9.73-24.76 9.68-23.73 9.63-22.55 9.58-21.38 9.53-20.09 9.47-18.8 9.43-17.53 9.38-16.25 9.36-15.04 9.35-13.83 9.38-12.75L9.38-12.75Q9.43-10.63 9.64-9.2 9.85-7.78 10.48-6.96 11.1-6.15 12.31-5.79 13.53-5.43 15.58-5.4L15.58-5.4Q17.35-5.33 18.94-5.26 20.53-5.2 21.55-5.13L21.55-5.13Q23.05-5.23 24-5.21 24.95-5.2 25.43-5.03L25.43-5.03Q25.83-4.83 26.01-4.46 26.2-4.1 26.2-3.45L26.2-3.45Q26.2-2.4 25.55-1.68 24.9-0.95 23.74-0.45 22.58 0.05 21.05 0.43L21.05 0.43Q19.45 0.8 17.35 1.03 15.25 1.25 13.18 1.25L13.18 1.25Q12.35 1.25 11.34 1.21 10.33 1.18 9.36 1.07 8.4 0.98 7.7 0.83ZM59.47 1L59.47 1Q58.45 1 57.71 0.49 56.97-0.03 56.4-1.05L56.4-1.05Q56.17-1.73 55.9-2.64 55.62-3.55 55.36-4.5 55.1-5.45 54.82-6.31 54.55-7.18 54.27-7.75L54.27-7.75Q53.92-8.55 53.41-8.93 52.9-9.3 51.9-9.45L51.9-9.45Q51.4-9.5 50.39-9.59 49.37-9.68 48.17-9.74 46.97-9.8 45.92-9.8L45.92-9.8Q44.32-9.8 42.67-9.73 41.02-9.65 39.82-9.53L39.82-9.53Q38.8-9.43 38.28-9.11 37.77-8.8 37.45-8.03L37.45-8.03Q37.12-7.3 36.77-6.28 36.42-5.25 36.07-4.13 35.72-3 35.37-1.93L35.37-1.93Q34.85-0.73 34.11-0.11 33.37 0.5 32.07 0.5L32.07 0.5Q31.07 0.5 30.4 0.18 29.72-0.15 29.4-0.9 29.07-1.65 29.07-2.88L29.07-2.88Q29.07-4.03 29.4-5.64 29.72-7.25 30.29-9.13 30.85-11 31.54-12.93 32.22-14.85 32.94-16.64 33.65-18.43 34.3-19.86 34.95-21.3 35.42-22.15L35.42-22.15Q36.27-23.73 37.36-25.18 38.45-26.63 39.78-27.76 41.12-28.9 42.72-29.56 44.32-30.23 46.25-30.23L46.25-30.23Q49.35-30.23 51.84-28.35 54.32-26.48 56.25-23.38L56.25-23.38Q56.97-22.33 57.71-20.66 58.45-19 59.17-16.99 59.9-14.98 60.52-12.83 61.15-10.68 61.64-8.6 62.12-6.53 62.39-4.78 62.65-3.03 62.65-1.83L62.65-1.83Q62.65-0.28 61.8 0.36 60.95 1 59.47 1ZM52.22-13.78L52.22-13.78Q52.77-13.88 52.95-14.2 53.12-14.53 53.12-15.23L53.12-15.23Q53.12-16 52.86-17.14 52.6-18.28 52.15-19.54 51.7-20.8 51.1-21.9L51.1-21.9Q50.25-23.53 49.1-24.61 47.95-25.7 46.62-25.7L46.62-25.7Q45.17-25.7 43.86-24.56 42.55-23.43 41.55-21.68L41.55-21.68Q41.12-20.98 40.67-20.08 40.22-19.18 39.85-18.23 39.47-17.28 39.23-16.44 39-15.6 39-15.03L39-15.03Q39-14.28 39.6-13.99 40.2-13.7 41.52-13.7L41.52-13.7Q44.32-13.7 46.37-13.7 48.42-13.7 49.86-13.7 51.3-13.7 52.22-13.78ZM70.64 1.2L70.64 1.2Q69.62 1.2 68.96 0.56 68.3-0.08 67.84-1.23L67.84-1.23Q67.62-1.83 67.42-3.21 67.22-4.6 67.05-6.45 66.87-8.3 66.73-10.31 66.59-12.33 66.5-14.25 66.39-16.18 66.34-17.71 66.3-19.25 66.3-20.08L66.3-20.08Q66.3-23 66.68-25.04 67.07-27.08 68.09-28.16 69.12-29.25 71.07-29.25L71.07-29.25Q72.42-29.25 73.75-28.16 75.07-27.08 76.84-24.73 78.62-22.38 81.25-18.6L81.25-18.6Q84.75-13.45 86.87-10.96 89-8.47 89.92-8.47L89.92-8.47Q90.37-8.47 90.66-8.7 90.94-8.93 91.11-9.61 91.27-10.3 91.32-11.7L91.32-11.7Q91.37-12.3 91.37-13.53 91.37-14.75 91.36-16.29 91.34-17.82 91.32-19.45 91.3-21.08 91.3-22.53 91.3-23.98 91.31-25 91.32-26.03 91.37-26.38L91.37-26.38Q91.67-27.88 92.34-28.45 93.02-29.03 94.22-29.03L94.22-29.03Q95.12-29.03 95.73-28.71 96.34-28.4 96.73-27.79 97.12-27.18 97.31-26.21 97.5-25.25 97.55-23.95L97.55-23.95Q97.57-23.2 97.59-21.78 97.62-20.35 97.65-18.54 97.67-16.73 97.66-14.78 97.65-12.83 97.61-10.99 97.57-9.15 97.5-7.65 97.42-6.15 97.27-5.25L97.27-5.25Q96.97-3.33 96.36-2.04 95.75-0.75 94.73-0.11 93.72 0.53 92.14 0.53L92.14 0.53Q90.72 0.53 89.02-0.91 87.32-2.35 85.36-4.89 83.39-7.43 81.17-10.63L81.17-10.63Q79.75-12.68 78.52-14.41 77.3-16.15 76.36-17.44 75.42-18.73 74.77-19.44 74.12-20.15 73.8-20.15L73.8-20.15Q73.22-20.15 73-19.49 72.77-18.82 72.77-16.82L72.77-16.82Q72.77-15.68 72.82-14.29 72.87-12.9 72.94-11.43 73.02-9.95 73.12-8.46 73.22-6.98 73.27-5.59 73.32-4.2 73.33-3.03 73.34-1.85 73.27-1L73.27-1Q73 0.28 72.34 0.74 71.69 1.2 70.64 1.2ZM116.32 1.6L116.32 1.6Q112.89 1.6 110.14 0.61 107.39-0.38 105.45-2.24 103.52-4.1 102.49-6.75 101.47-9.4 101.47-12.73L101.47-12.73Q101.47-16.45 102.55-19.55 103.64-22.65 105.75-24.91 107.87-27.18 110.92-28.4 113.97-29.63 117.89-29.63L117.89-29.63Q119.89-29.63 121.58-29.21 123.27-28.8 124.5-28.13 125.74-27.45 126.43-26.63 127.12-25.8 127.12-24.95L127.12-24.95Q127.12-23.93 126.57-23.43 126.02-22.93 125.22-22.93L125.22-22.93Q124.57-22.93 124.03-23.23 123.49-23.53 122.74-23.91 121.99-24.3 120.77-24.6 119.54-24.9 117.57-24.9L117.57-24.9Q115.92-24.9 114.32-24.2 112.72-23.5 111.44-22.11 110.17-20.73 109.41-18.69 108.64-16.65 108.64-13.98L108.64-13.98Q108.64-11.95 109.17-10.1 109.69-8.25 110.78-6.81 111.87-5.38 113.54-4.55 115.22-3.73 117.52-3.73L117.52-3.73Q119.27-3.73 120.52-4.19 121.77-4.65 122.67-5.28 123.57-5.9 124.29-6.36 125.02-6.83 125.69-6.83L125.69-6.83Q127.02-6.83 127.52-6.21 128.02-5.6 128.02-4.5L128.02-4.5Q128.02-3.38 127.17-2.29 126.32-1.2 124.75-0.33 123.19 0.55 121.04 1.07 118.89 1.6 116.32 1.6ZM142.64 1.55L142.64 1.55Q139.46 1.55 137.29 0.4 135.11-0.75 133.93-3.08 132.74-5.4 132.36-8.95L132.36-8.95Q132.26-9.8 132.21-10.71 132.16-11.63 132.13-12.61 132.09-13.6 132.09-14.65 132.09-15.7 132.09-16.8L132.09-16.8Q132.09-21.08 132.91-23.86 133.74-26.65 135.5-28.23 137.26-29.8 140.03-30.45 142.79-31.1 146.61-31.1L146.61-31.1Q148.49-31.1 150.2-30.94 151.91-30.78 153.24-30.45 154.56-30.13 155.33-29.64 156.09-29.15 156.09-28.48L156.09-28.48Q156.09-27.78 155.68-27.36 155.26-26.95 154.61-26.83L154.61-26.83Q153.84-26.73 152.56-26.79 151.29-26.85 149.76-26.93 148.24-27 146.66-27L146.66-27Q144.41-27 142.89-26.66 141.36-26.33 140.44-25.55 139.51-24.78 139.11-23.45 138.71-22.13 138.71-20.18L138.71-20.18Q138.71-19.18 138.98-18.66 139.24-18.15 140.21-17.99 141.19-17.82 143.34-17.82L143.34-17.82Q143.86-17.82 144.64-17.84 145.41-17.85 146.25-17.88 147.09-17.9 147.83-17.9 148.56-17.9 148.99-17.9L148.99-17.9Q150.86-17.9 151.59-17.43 152.31-16.95 152.31-16.03L152.31-16.03Q152.31-14.7 151.45-14.21 150.59-13.73 149.16-13.73L149.16-13.73Q148.54-13.73 147.79-13.73 147.04-13.73 146.23-13.71 145.41-13.7 144.66-13.7 143.91-13.7 143.31-13.7L143.31-13.7Q141.09-13.7 140.01-13.56 138.94-13.43 138.63-12.96 138.31-12.5 138.31-11.5L138.31-11.5Q138.31-9.85 138.46-8.54 138.61-7.23 138.99-6.26 139.36-5.3 140.05-4.67 140.74-4.05 141.81-3.74 142.89-3.43 144.41-3.43L144.41-3.43Q146.31-3.43 148.14-3.55 149.96-3.68 151.44-3.79 152.91-3.9 153.74-3.9L153.74-3.9Q154.86-3.9 155.39-3.44 155.91-2.98 155.91-2.08L155.91-2.08Q155.91-1.07 154.68-0.38 153.44 0.33 151.45 0.75 149.46 1.18 147.14 1.36 144.81 1.55 142.64 1.55Z" opacity="1" transform="matrix(1,0,0,1,0,0)" fill="#efefef" class="wordmark-text-0" data-fill-palette-color="primary" id="text-0"></path></svg></g></svg></g></svg></g></svg></g><g><svg viewBox="0 0 111.96245782954504 116.04676207109236" height="116.04676207109236" width="111.96245782954504"><g><svg version="1.1" xmlns="http://www.w3.org/2000/svg" xmlns:xlink="http://www.w3.org/1999/xlink" x="0" y="0" viewBox="1.759533133587158 0 96.48046686641284 100.00000000000014" enable-background="new 1.759 0 96.48 100" xml:space="preserve" id="icon-0" width="111.96245782954504" height="116.04676207109236" class="icon-icon-0" data-fill-palette-color="accent"><g fill="#e0dbc6" data-fill-palette-color="accent"><g fill="#e0dbc6" data-fill-palette-color="accent"><path d="M49.377 70.053V97.618A2.383 2.383 0 0 0 54.141 97.618V70.053C64.592 68.529 72.743 57.12 72.743 43.304 72.743 17.966 54.126 1.292 53.333 0.595 53.217 0.491 53.074 0.44 52.942 0.362 52.838 0.3 52.746 0.222 52.638 0.179A2.4 2.4 0 0 0 51.759 0C51.449 0 51.155 0.07 50.881 0.178 50.771 0.222 50.68 0.3 50.575 0.361 50.446 0.438 50.302 0.49 50.185 0.594 49.392 1.291 30.776 17.965 30.776 43.303 30.776 57.12 38.927 68.528 49.377 70.053M54.141 8.364C58.639 13.666 65.599 23.687 67.488 36.653L54.141 45.55zM54.141 51.276L67.932 42.079C67.942 42.489 67.977 42.891 67.977 43.303 67.977 54.422 61.956 63.627 54.141 65.211zM49.377 8.364V33.646L38.65 26.496C41.637 18.443 46.138 12.184 49.377 8.364M37.162 31.223L49.377 39.371V65.211C41.562 63.628 35.54 54.423 35.54 43.304 35.54 39.002 36.171 34.969 37.162 31.223" fill="#e0dbc6" data-fill-palette-color="accent"></path><path d="M87.287 48.213A2.385 2.385 0 0 0 84.139 48.213C83.693 48.606 73.186 58.018 73.186 72.321 73.186 79.873 77.425 86.194 83.06 87.731V97.618A2.383 2.383 0 0 0 87.824 97.618V87.852C93.727 86.583 98.24 80.113 98.24 72.32 98.24 58.017 87.734 48.605 87.287 48.213M87.824 82.85C87.144 83.133 86.443 83.332 85.714 83.332 84.784 83.332 83.898 83.052 83.061 82.603 80.119 81.024 77.951 76.972 77.951 72.321 77.951 63.331 83.051 56.413 85.715 53.412 88.379 56.413 93.478 63.331 93.478 72.321 93.477 77.25 91.038 81.504 87.824 82.85" fill="#e0dbc6" data-fill-palette-color="accent"></path><path d="M34.751 100A2.38 2.38 0 0 0 37.131 97.618V83.115L38.303 84.12C38.753 84.505 39.305 84.693 39.853 84.693 40.525 84.693 41.191 84.412 41.662 83.864 42.517 82.864 42.4 81.361 41.404 80.506L23.547 65.201A2.38 2.38 0 0 0 20.446 65.201L2.59 80.506A2.384 2.384 0 0 0 2.332 83.864 2.383 2.383 0 0 0 5.69 84.12L6.862 83.115V97.618A2.38 2.38 0 0 0 9.242 100zM11.622 79.034L21.997 70.143 32.372 79.034V95.236H11.622z" fill="#e0dbc6" data-fill-palette-color="accent"></path></g></g></svg></g></svg></g></svg></g><defs></defs></svg><rect width="395.52" height="87.04401801259569" fill="none" stroke="none" visibility="hidden"></rect></g></svg></g></svg>